<?xml version="1.0" encoding="UTF-8"?>
<svg width="239px" height="150px" viewBox="0 0 239 150" version="1.1" xmlns="http://www.w3.org/2000/svg" xmlns:xlink="http://www.w3.org/1999/xlink">
    <!-- Generator: Sketch 52.6 (67491) - http://www.bohemiancoding.com/sketch -->
    <title>Group 2</title>
    <desc>Created with Sketch.</desc>
    <g id="Page-1" stroke="none" stroke-width="1" fill="none" fill-rule="evenodd">
        <g id="Artboard" transform="translate(-67.000000, -318.000000)">
            <g id="Group-2" transform="translate(67.000000, 318.000000)">
                <rect id="Rectangle" fill="#FFFFFF" fill-rule="nonzero" x="0" y="0" width="239" height="150"></rect>
                <g id="paypal" transform="translate(42.000000, 16.000000)">
                    <path d="M116.874956,74 L103.483475,74 C102.69574,74 101.908006,74.7789474 101.514139,75.5578947 L96,109.831579 C96,110.610526 96.3938671,111 97.1816013,111 L104.271209,111 C105.058943,111 105.45281,110.610526 105.45281,109.831579 L107.028278,100.094737 C107.028278,99.3157895 107.816013,98.5368421 108.997614,98.5368421 L113.330152,98.5368421 C122.389095,98.5368421 127.509367,94.2526316 128.690968,85.6842105 C129.478702,82.1789474 128.690968,79.0631579 127.1155,77.1157895 C124.752297,75.1684211 121.207493,74 116.874956,74 M118.450424,86.8526316 C117.66269,91.5263158 114.117886,91.5263158 110.573082,91.5263158 L108.20988,91.5263158 L109.785348,82.5684211 C109.785348,82.1789474 110.179215,81.7894737 110.966949,81.7894737 L111.754683,81.7894737 C114.117886,81.7894737 116.481088,81.7894737 117.66269,83.3473684 C118.450424,83.7368421 118.450424,84.9052632 118.450424,86.8526316" id="Shape" fill="#139AD6" fill-rule="nonzero"></path>
                    <g id="Group" transform="translate(0.000000, 75.000000)" fill="#263B80" fill-rule="nonzero">
                        <path d="M20.8046512,0.0961038961 L7.52093023,0.0961038961 C6.73953488,0.0961038961 5.95813953,0.864935065 5.56744186,1.63376623 L0.0976744186,35.4623377 C0.0976744186,36.2311688 0.488372093,36.6155844 1.26976744,36.6155844 L7.52093023,36.6155844 C8.30232558,36.6155844 9.08372093,35.8467532 9.4744186,35.0779221 L11.0372093,25.8519481 C11.0372093,25.0831169 11.8186047,24.3142857 12.9906977,24.3142857 L17.2883721,24.3142857 C26.2744186,24.3142857 31.3534884,20.0857143 32.5255814,11.6285714 C33.3069767,8.16883117 32.5255814,5.09350649 30.9627907,3.17142857 C28.6186047,1.24935065 25.4930233,0.0961038961 20.8046512,0.0961038961 M22.3674419,12.7818182 C21.5860465,17.3948052 18.0697674,17.3948052 14.5534884,17.3948052 L12.6,17.3948052 L14.1627907,8.55324675 C14.1627907,8.16883117 14.5534884,7.78441558 15.3348837,7.78441558 L16.1162791,7.78441558 C18.4604651,7.78441558 20.8046512,7.78441558 21.9767442,9.32207792 C22.3674419,9.70649351 22.7581395,10.8597403 22.3674419,12.7818182" id="Shape"></path>
                        <path d="M61.0465116,12.3974026 L54.7953488,12.3974026 C54.4046512,12.3974026 53.6232558,12.7818182 53.6232558,13.1662338 L53.2325581,15.0883117 L52.8418605,14.3194805 C51.2790698,12.3974026 48.544186,11.6285714 45.4186047,11.6285714 C38.3860465,11.6285714 32.1348837,17.0103896 30.9627907,24.3142857 C30.1813953,28.1584416 31.3534884,31.6181818 33.3069767,33.9246753 C35.2604651,36.2311688 37.9953488,37 41.5116279,37 C47.372093,37 50.4976744,33.5402597 50.4976744,33.5402597 L50.1069767,35.4623377 C50.1069767,36.2311688 50.4976744,36.6155844 51.2790698,36.6155844 L57.1395349,36.6155844 C57.9209302,36.6155844 58.7023256,35.8467532 59.0930233,35.0779221 L62.6093023,13.5506494 C62.2186047,13.1662338 61.4372093,12.3974026 61.0465116,12.3974026 M52.0604651,24.6987013 C51.2790698,28.1584416 48.544186,30.8493506 44.6372093,30.8493506 C42.6837209,30.8493506 41.1209302,30.0805195 40.3395349,29.3116883 C39.5581395,28.1584416 39.1674419,26.6207792 39.1674419,24.6987013 C39.5581395,21.238961 42.6837209,18.5480519 46.2,18.5480519 C48.1534884,18.5480519 49.3255814,19.3168831 50.4976744,20.0857143 C51.6697674,21.238961 52.0604651,23.161039 52.0604651,24.6987013" id="Shape"></path>
                    </g>
                    <path d="M156.431881,86.7878788 L150.159405,86.7878788 C149.767376,86.7878788 148.983316,87.1818182 148.983316,87.5757576 L148.591286,89.5454545 L148.199257,88.7575758 C146.631138,86.7878788 143.88693,86 140.750692,86 C133.694157,86 127.421681,91.5151515 126.245592,99 C125.461532,102.939394 126.637622,106.484848 128.59777,108.848485 C130.557919,111.212121 133.302127,112 136.830395,112 C142.710841,112 145.847078,108.454545 145.847078,108.454545 L145.455049,110.424242 C145.455049,111.212121 145.847078,111.606061 146.631138,111.606061 L152.511584,111.606061 C153.295643,111.606061 154.079703,110.818182 154.471732,110.030303 L158,87.969697 C157.60797,87.5757576 157.215941,86.7878788 156.431881,86.7878788 M147.415197,99.3939394 C146.631138,102.939394 143.88693,105.69697 139.966632,105.69697 C138.006484,105.69697 136.438365,104.909091 135.654305,104.121212 C134.870246,102.939394 134.478216,101.363636 134.478216,99.3939394 C134.870246,95.8484848 138.006484,93.0909091 141.534751,93.0909091 C143.4949,93.0909091 144.670989,93.8787879 145.847078,94.6666667 C147.415197,95.8484848 147.807227,97.8181818 147.415197,99.3939394" id="Shape" fill="#139AD6" fill-rule="nonzero"></path>
                    <path d="M95.0138984,87 L88.3874533,87 C87.6078715,87 87.2180806,87.3908046 86.8282897,87.7816092 L78.2528902,101.068966 L74.3549813,88.5632184 C73.9651904,87.7816092 73.5753995,87.3908046 72.4060269,87.3908046 L66.1693727,87.3908046 C65.3897909,87.3908046 65,88.1724138 65,88.954023 L72.016236,109.666667 L65.3897909,119.045977 C65,119.827586 65.3897909,121 66.1693727,121 L72.4060269,121 C73.1856087,121 73.5753995,120.609195 73.9651904,120.218391 L95.4036893,89.3448276 C96.5730619,88.1724138 95.7934802,87 95.0138984,87" id="Path" fill="#263B80"></path>
                    <path d="M163.444444,75.927908 L158,110.836384 C158,111.612128 158.388889,112 159.166667,112 L164.611111,112 C165.388889,112 166.166667,111.224256 166.555556,110.448512 L172,76.3157799 C172,75.540036 171.611111,75.152164 170.833333,75.152164 L164.611111,75.152164 C164.222222,74.7642921 163.833333,75.152164 163.444444,75.927908" id="Path" fill="#139AD6"></path>
                    <path d="M101.121408,5.32394366 C97.827061,1.77464789 91.7089888,0 83.237812,0 L59.7067652,0 C58.2949024,0 56.8830396,1.33098592 56.4124187,2.66197183 L47,60.7816901 C47,62.1126761 47.9412419,63 48.8824837,63 L63.4717327,63 L67.2367002,41.2605634 L67.2367002,42.1478873 C67.7073211,40.8169014 69.1191839,39.4859155 70.5310467,39.4859155 L77.5903608,39.4859155 C91.2383679,39.4859155 101.592028,34.1619718 104.886375,19.5211268 C104.886375,19.0774648 104.886375,18.6338028 104.886375,18.1901408 C104.415754,18.1901408 104.415754,18.1901408 104.886375,18.1901408 C105.356996,12.4225352 104.415754,8.87323944 101.121408,5.32394366" id="Path" fill="#263B80"></path>
                    <path d="M104.379498,18 C104.379498,18.4453782 104.379498,18.8907563 104.379498,19.3361345 C101.083314,34.4789916 90.7238817,39.3781513 77.0682658,39.3781513 L70.0050162,39.3781513 C68.5923663,39.3781513 67.1797164,40.7142857 66.7088331,42.0504202 L62,69.2184874 C62,70.1092437 62.4708833,71 63.8835332,71 L76.1264992,71 C77.5391491,71 78.9517991,70.1092437 78.9517991,68.7731092 L78.9517991,68.3277311 L81.3062156,54.5210084 L81.3062156,53.6302521 C81.3062156,52.2941176 82.7188655,51.4033613 84.1315154,51.4033613 L86.0150487,51.4033613 C97.7871313,51.4033613 107.204797,46.9495798 109.559214,33.5882353 C110.500981,28.2436975 110.030097,23.3445378 107.204797,20.2268908 C106.733914,19.3361345 105.792148,18.4453782 104.379498,18" id="Path" fill="#139AD6"></path>
                    <path d="M100.666667,17.3 C100.185185,17.3 99.7037037,16.8666667 99.2222222,16.8666667 C98.7407407,16.8666667 98.2592593,16.8666667 97.7777778,16.4333333 C95.8518519,16 93.9259259,16 91.5185185,16 L72.7407407,16 C72.2592593,16 71.7777778,16 71.2962963,16.4333333 C70.3333333,16.8666667 69.8518519,17.7333333 69.8518519,18.6 L66,41.1333333 L66,42 C66.4814815,40.7 67.9259259,39.4 69.3703704,39.4 L76.5925926,39.4 C90.5555556,39.4 101.148148,34.2 104.518519,19.9 C104.518519,19.4666667 104.518519,19.0333333 105,18.6 C104.037037,18.1666667 103.555556,17.7333333 102.592593,17.7333333 C101.148148,17.3 101.148148,17.3 100.666667,17.3" id="Path" fill="#232C65"></path>
                </g>
            </g>
        </g>
    </g>
</svg>