<?xml version="1.0" encoding="UTF-8"?>
<svg width="239px" height="150px" viewBox="0 0 239 150" version="1.1" xmlns="http://www.w3.org/2000/svg" xmlns:xlink="http://www.w3.org/1999/xlink">
    <!-- Generator: Sketch 52.6 (67491) - http://www.bohemiancoding.com/sketch -->
    <title>union-pay</title>
    <desc>Created with Sketch.</desc>
    <g id="Page-1" stroke="none" stroke-width="1" fill="none" fill-rule="evenodd">
        <g id="Artboard" transform="translate(-447.000000, -46.000000)">
            <g id="union-pay" transform="translate(447.000000, 46.000000)">
                <rect id="Rectangle" stroke="#EEEEEE" fill-rule="nonzero" x="0.5" y="0.5" width="238" height="149" rx="5"></rect>
                <g id="unionpay" transform="translate(15.000000, 31.000000)">
                    <path d="M85.2470588,57.862069 L86.2882353,57.862069 C87.3294118,57.862069 88.0235294,57.5172414 88.3705882,56.8275862 L91.4941176,52.3448276 L99.4764706,52.3448276 L97.7411765,55.1034483 L107.458824,55.1034483 L106.070588,59.5862069 L94.6176471,59.5862069 C93.2294118,61.6551724 91.8411765,62.3448276 89.7588235,62.3448276 L83.8588235,62.3448276 L85.2470588,57.862069 Z M83.8588235,64.0689655 L104.682353,64.0689655 L103.294118,68.8965517 L94.9647059,68.8965517 L93.5764706,73.7241379 L101.905882,73.7241379 L100.517647,78.5517241 L92.1882353,78.5517241 L90.1058824,85.4482759 C89.7588235,86.4827586 90.1058824,87.1724138 91.8411765,86.8275862 L98.4352941,86.8275862 L97.0470588,91.3103448 L84.2058824,91.3103448 C81.7764706,91.3103448 81.0823529,89.9310345 81.7764706,87.1724138 L84.2058824,78.2068966 L79,78.2068966 L80.3882353,73.3793103 L85.5941176,73.3793103 L86.9823529,68.5517241 L82.1235294,68.5517241 L83.8588235,64.0689655 Z M117.523529,52.3448276 L117.176471,55.1034483 C117.176471,55.1034483 120.994118,52 124.811765,52 L138,52 L132.794118,70.6206897 C132.447059,72.6896552 130.711765,73.7241379 127.241176,73.7241379 L112.317647,73.7241379 L108.847059,86.4827586 C108.5,87.1724138 108.847059,87.5172414 109.541176,87.5172414 L112.664706,87.5172414 L111.623529,91.3103448 L103.988235,91.3103448 C101.211765,91.3103448 99.8235294,90.6206897 100.517647,88.5517241 L110.582353,52 L117.523529,52 L117.523529,52.3448276 Z M128.629412,57.5172414 L116.829412,57.5172414 L115.441176,62.3448276 C115.441176,62.3448276 117.523529,60.9655172 120.647059,60.9655172 C123.770588,60.9655172 127.588235,60.9655172 127.588235,60.9655172 L128.629412,57.5172414 Z M124.464706,68.8965517 C125.505882,68.8965517 125.852941,68.5517241 125.852941,67.862069 L126.547059,65.1034483 L114.747059,65.1034483 L113.705882,68.8965517 L124.464706,68.8965517 Z M116.482353,74.7586207 L123.423529,74.7586207 L123.423529,77.862069 L125.158824,77.862069 C126.2,77.862069 126.547059,77.5172414 126.547059,76.8275862 L127.241176,74.7586207 L132.794118,74.7586207 L132.1,77.5172414 C131.405882,79.9310345 129.670588,80.9655172 126.894118,81.3103448 L123.076471,81.3103448 L123.076471,86.4827586 C123.076471,87.1724138 123.770588,87.862069 125.158824,87.862069 L128.629412,87.862069 L127.588235,92 L119.258824,92 C116.829412,92 115.788235,90.9655172 115.788235,88.5517241 L116.482353,74.7586207 Z" id="Shape" fill="#009DA5" fill-rule="nonzero"></path>
                    <g id="Group" transform="translate(83.000000, 52.000000)" fill="#02CCCC">
                        <path d="M8.69268293,8.55555556 C9.04390244,8.22962963 9.74634146,7.57777778 10.097561,7.25185185 L21.6878049,7.25185185 L23.0926829,3.01481481 L13.2585366,3.01481481 L15.0146341,0.407407407 L6.93658537,0.407407407 L3.77560976,4.31851852 C3.42439024,4.97037037 2.72195122,5.2962963 1.66829268,5.2962963 L0.614634146,5.2962963 L0.263414634,6.27407407 C3.07317073,6.92592593 5.88292683,7.9037037 8.69268293,8.55555556 Z" id="Path"></path>
                        <path d="M32.9268293,2.68888889 L33.2780488,0.0814814815 L26.2536585,0.0814814815 L23.0926829,10.5111111 C24.8487805,10.5111111 26.9560976,10.837037 28.7121951,10.837037 C36.7902439,10.837037 44.1658537,9.85925926 51.5414634,7.9037037 L54,0.0814814815 L40.6536585,0.0814814815 C36.7902439,0.0814814815 32.9268293,2.68888889 32.9268293,2.68888889 Z M43.4634146,8.22962963 C43.4634146,8.22962963 39.6,8.22962963 36.4390244,8.22962963 C32.9268293,8.22962963 31.1707317,9.53333333 31.1707317,9.53333333 L32.5756098,4.97037037 L44.5170732,4.97037037 L43.4634146,8.22962963 Z" id="Shape" fill-rule="nonzero"></path>
                    </g>
                    <path d="M145.02994,57.8119658 L146.766467,52.3418803 L154.754491,52.3418803 L154.407186,54.3931624 C154.407186,54.3931624 158.57485,52.3418803 161.353293,52.3418803 C164.131737,52.3418803 171.42515,52.3418803 171.42515,52.3418803 L169.688623,57.8119658 L168.299401,57.8119658 L160.658683,83.7948718 L162.047904,83.7948718 L160.658683,88.9230769 L158.922156,88.9230769 L158.227545,91.3162393 L150.586826,91.3162393 L151.281437,88.9230769 L136,88.9230769 L137.389222,83.7948718 L138.778443,83.7948718 L146.419162,57.8119658 L145.02994,57.8119658 Z M153.712575,57.8119658 L151.628743,64.991453 C151.628743,64.991453 155.101796,63.6239316 158.227545,63.2820513 C158.922156,60.8888889 159.616766,57.8119658 159.616766,57.8119658 L153.712575,57.8119658 Z M150.934132,68.4102564 L148.850299,75.9316239 C148.850299,75.9316239 152.670659,74.2222222 155.449102,73.8803419 C156.143713,71.1452991 156.838323,68.4102564 156.838323,68.4102564 L150.934132,68.4102564 Z M152.323353,83.7948718 L153.712575,78.3247863 L147.808383,78.3247863 L146.419162,83.7948718 L152.323353,83.7948718 Z M171.772455,52 L179.413174,52 L179.760479,54.7350427 C179.760479,55.4188034 180.107784,55.7606838 181.149701,55.7606838 L182.538922,55.7606838 L181.149701,60.5470085 L175.592814,60.5470085 C173.508982,60.5470085 172.467066,59.8632479 172.11976,58.1538462 L171.772455,52 Z M169.688623,62.2564103 L194,62.2564103 L192.610778,67.042735 L184.97006,67.042735 L183.580838,71.8290598 L191.221557,71.8290598 L189.832335,76.957265 L181.149701,76.957265 L179.065868,80.034188 L183.233533,80.034188 L184.275449,85.8461538 C184.275449,86.5299145 184.97006,86.8717949 185.664671,86.8717949 L187.053892,86.8717949 L185.664671,91.6581197 L181.149701,91.6581197 C178.718563,91.6581197 177.329341,90.974359 177.329341,89.2649573 L176.287425,83.7948718 L172.467066,89.6068376 C171.42515,91.3162393 170.035928,92 168.299401,92 L161.005988,92 L162.39521,87.2136752 L164.479042,87.2136752 C165.520958,87.2136752 166.215569,86.8717949 166.91018,85.8461538 L172.814371,77.2991453 L165.173653,77.2991453 L166.562874,72.1709402 L174.898204,72.1709402 L176.287425,67.3846154 L167.952096,67.3846154 L169.688623,62.2564103 Z" id="Shape" fill="#009DA5" fill-rule="nonzero"></path>
                    <path d="M155,53 L147.333333,53 L146,57 C149,55.7692308 152,54.5384615 155,53 Z" id="Path" fill="#02CCCC"></path>
                    <path d="M32.1272727,26.8739496 C31.0909091,31.3529412 29.0181818,34.7983193 25.9090909,37.210084 C22.4545455,39.6218487 18.3090909,41 13.1272727,41 C8.29090909,41 4.49090909,39.6218487 2.41818182,37.210084 C0.690909091,35.487395 0,33.0756303 0,30.3193277 C0,29.2857143 0,27.907563 0.345454545,26.5294118 L5.87272727,0 L14.1636364,0 L8.63636364,26.1848739 C8.63636364,26.8739496 8.29090909,27.5630252 8.29090909,28.2521008 C8.29090909,29.6302521 8.63636364,30.6638655 9.32727273,31.697479 C10.3636364,33.0756303 12.0909091,33.7647059 14.1636364,33.7647059 C16.5818182,33.7647059 19,33.0756303 20.3818182,32.0420168 C22.1090909,30.6638655 23.1454545,28.9411765 23.4909091,26.5294118 L29.0181818,0.344537815 L38,0.344537815 L32.1272727,26.8739496" id="Path" fill="#FF7F29"></path>
                    <g id="Group" fill="#EA2227">
                        <path d="M32.3478261,27.3 C31.3043478,31.85 29.2173913,35.35 26.0869565,37.8 C22.6086957,40.25 18.4347826,41.65 13.2173913,41.65 C8.34782609,41.65 4.52173913,40.25 2.43478261,37.8 C0.695652174,36.05 5.32907052e-15,33.6 5.32907052e-15,30.8 C5.32907052e-15,29.75 5.32907052e-15,28.35 0.347826087,26.95 L12.5217391,0 L14.2608696,0 L8.69565217,26.6 C8.69565217,27.3 8.34782609,28 8.34782609,28.7 C8.34782609,30.1 8.69565217,31.15 9.39130435,32.2 C10.4347826,33.6 12.173913,34.3 14.2608696,34.3 C16.6956522,34.3 19.1304348,33.6 20.5217391,32.55 C22.2608696,31.15 23.3043478,29.4 23.6521739,26.95 L35.826087,0.35 L38.2608696,0.35 L32.3478261,27.3" id="Path"></path>
                        <path d="M40.3478261,16.8 L46.2608696,16.8 L45.5652174,20.3 L46.2608696,19.25 C48.3478261,17.15 50.4347826,16.1 53.2173913,16.1 C55.6521739,16.1 57.3913043,16.8 58.7826087,18.2 C59.826087,19.6 60.173913,21.7 59.826087,24.15 L56.6956522,40.6 L50.4347826,40.6 L53.2173913,25.55 C53.5652174,24.15 53.5652174,22.75 52.8695652,22.05 C52.5217391,21.35 51.4782609,21 50.0869565,21 C48.3478261,21 47.3043478,21.35 46.2608696,22.4 C45.2173913,23.45 44.5217391,24.85 44.173913,26.6 L41.3913043,40.6 L35.1304348,40.6 L40.3478261,16.8" id="Path"></path>
                    </g>
                    <path d="M108.973357,15.7142857 L115.012433,15.7142857 L114.301954,19.2857143 L115.012433,18.2142857 C117.143872,16.0714286 119.275311,15 122.117229,15 C124.603908,15 126.380107,15.7142857 127.801066,17.1428571 C128.866785,18.5714286 129.222025,20.7142857 128.866785,23.2142857 L125.669627,40 L119.275311,40 L122.472469,24.6428571 C122.827709,23.2142857 122.827709,21.7857143 122.117229,21.0714286 C121.761989,20.3571429 120.69627,20 119.275311,20 C117.499112,20 116.433393,20.3571429 115.367673,21.4285714 C114.301954,22.5 113.591474,23.9285714 113.236234,25.7142857 L110.394316,40 L104,40 L108.973357,15.7142857" id="Path" fill="#A5002F"></path>
                    <g id="Group" transform="translate(64.000000, 8.000000)" fill="#EA2227" fill-rule="nonzero">
                        <path d="M5.14285714,8.89230769 L11.6571429,8.89230769 L6.51428571,32.9538462 L0,32.9538462 L5.14285714,8.89230769 Z M7.2,0.174358974 L13.7142857,0.174358974 L12.3428571,6.1025641 L5.82857143,6.1025641 L7.2,0.174358974 Z" id="Shape"></path>
                        <path d="M17.4857143,31.2102564 C15.7714286,29.4666667 15.0857143,27.374359 15.0857143,24.5846154 C15.0857143,24.2358974 15.0857143,23.5384615 15.0857143,22.8410256 C15.0857143,22.1435897 15.0857143,21.7948718 15.4285714,21.0974359 C16.1142857,17.2615385 17.8285714,14.1230769 20.2285714,11.6820513 C22.6285714,9.24102564 25.7142857,8.19487179 29.4857143,8.19487179 C32.5714286,8.19487179 34.6285714,8.89230769 36.3428571,10.6358974 C38.0571429,12.3794872 38.7428571,14.4717949 38.7428571,17.6102564 C38.7428571,17.9589744 38.7428571,18.6564103 38.7428571,19.3538462 C38.7428571,20.0512821 38.7428571,20.4 38.4,21.0974359 C37.7142857,24.9333333 36,28.0717949 33.6,30.1641026 C31.2,32.2564103 28.1142857,33.6512821 24.3428571,33.6512821 C21.6,33.6512821 19.2,32.6051282 17.4857143,31.2102564 M29.8285714,26.3282051 C30.8571429,24.9333333 31.8857143,23.1897436 32.2285714,20.7487179 C32.2285714,20.4 32.2285714,20.0512821 32.5714286,19.3538462 C32.5714286,19.0051282 32.5714286,18.6564103 32.5714286,18.3076923 C32.5714286,16.9128205 32.2285714,15.5179487 31.5428571,14.8205128 C30.8571429,14.1230769 29.8285714,13.425641 28.4571429,13.425641 C26.7428571,13.425641 25.0285714,14.1230769 24,15.5179487 C22.9714286,16.9128205 21.9428571,18.6564103 21.6,21.4461538 C21.6,21.7948718 21.6,22.1435897 21.2571429,22.4923077 C21.2571429,22.8410256 21.2571429,23.1897436 21.2571429,23.5384615 C21.2571429,24.9333333 21.6,26.3282051 22.2857143,27.025641 C22.9714286,27.7230769 24,28.0717949 25.3714286,28.0717949 C27.4285714,28.0717949 28.8,27.7230769 29.8285714,26.3282051" id="Shape"></path>
                    </g>
                    <path d="M138.54902,2 L155.705882,2 C159.137255,2 161.539216,2.67857143 163.254902,4.03571429 C164.970588,5.39285714 166,7.42857143 166,10.4821429 C166,11.1607143 166,11.5 166,12.1785714 C166,12.8571429 165.656863,13.5357143 165.656863,14.2142857 C164.970588,17.9464286 163.254902,20.6607143 160.509804,23.0357143 C157.764706,25.0714286 154.676471,26.4285714 150.901961,26.4285714 L141.637255,26.4285714 L138.892157,40 L131,40 L138.54902,2 Z M142.666667,19.6428571 L150.215686,19.6428571 C152.27451,19.6428571 153.647059,19.3035714 155.019608,18.2857143 C156.04902,17.2678571 156.735294,15.9107143 157.421569,14.2142857 C157.421569,13.875 157.421569,13.5357143 157.421569,13.1964286 C157.421569,12.8571429 157.421569,12.5178571 157.421569,12.5178571 C157.421569,11.1607143 157.078431,10.1428571 156.04902,9.46428571 C155.019608,8.78571429 153.647059,8.44642857 151.588235,8.44642857 L145.068627,8.44642857 L142.666667,19.6428571 Z" id="Shape" fill="#1398E2" fill-rule="nonzero"></path>
                    <path d="M144.411765,2 L154.705882,2 C158.137255,2 160.539216,2.67857143 162.254902,4.03571429 C163.970588,5.39285714 165,7.42857143 165,10.4821429 C165,11.1607143 165,11.5 165,12.1785714 C165,12.8571429 164.656863,13.5357143 164.656863,14.2142857 C163.970588,17.9464286 162.254902,20.6607143 159.509804,23.0357143 C156.764706,25.0714286 153.676471,26.4285714 149.901961,26.4285714 L140.637255,26.4285714 L137.892157,40 L130,40 L144.411765,2 Z M142.009804,19.6428571 L149.558824,19.6428571 C151.617647,19.6428571 152.990196,19.3035714 154.362745,18.2857143 C155.392157,17.2678571 156.078431,15.9107143 156.764706,14.2142857 C156.764706,13.875 156.764706,13.5357143 156.764706,13.1964286 C156.764706,12.8571429 156.764706,12.5178571 156.764706,12.5178571 C156.764706,11.1607143 156.421569,10.1428571 155.392157,9.46428571 C154.362745,8.78571429 152.990196,8.44642857 150.931373,8.44642857 L144.411765,8.44642857 L142.009804,19.6428571 Z" id="Shape" fill="#0872B9" fill-rule="nonzero"></path>
                    <path d="M202.032967,45.7585527 C199.648352,51.1748557 197.263736,54.2215261 195.901099,55.5756019 C194.538462,56.9296776 191.813187,60.314867 185,59.976348 L185.681319,55.9141208 C191.131868,54.2215261 194.197802,46.4355906 195.901099,43.0504013 L193.857143,18 L198.285714,18 L202.032967,18 L202.373626,33.91039 L209.186813,18 L216,18 L202.032967,45.7585527" id="Path" fill="#055093"></path>
                    <path d="M182.615869,18.5806988 L179.778477,20.6825083 C176.941085,18.2303972 174.103693,16.8291909 168.783584,19.281302 C161.690105,22.4340162 155.660647,47.65573 175.167715,39.2484921 L176.231737,40.6496984 L184.034564,41 L189,18.2303972 L182.615869,18.5806988 M178.005107,31.1915557 C176.586411,34.6945715 174.103693,37.1466826 171.97565,36.4460794 C169.847606,35.7454763 169.138258,32.2424605 170.20228,28.7394447 C171.620976,25.2364288 174.103693,22.7843178 176.231737,23.4849209 C178.714455,24.1855241 179.423803,27.6885399 178.005107,31.1915557" id="Shape" fill="#0872B9" fill-rule="nonzero"></path>
                    <path d="M170,40.6615385 C171.407407,40.3230769 173.166667,39.9846154 175.277778,39.3076923 L176.333333,40.6615385 L184.074074,41 L189,19 L187.240741,19 C183.722222,27.4615385 177.388889,34.9076923 170,40.6615385 Z" id="Path" fill="#055093"></path>
                    <path d="M100.529412,18.4594595 C98.7647059,16.7027027 96.2941176,16 93.4705882,16 C92.7647059,16 92.4117647,16 91.7058824,16 C91,18.1081081 89.9411765,20.2162162 88.8823529,22.3243243 C89.9411765,21.6216216 91,21.2702703 92.4117647,21.2702703 C93.8235294,21.2702703 94.8823529,21.6216216 95.5882353,22.6756757 C96.2941176,23.3783784 96.6470588,24.7837838 96.6470588,26.1891892 C96.6470588,26.5405405 96.6470588,26.8918919 96.6470588,27.2432432 C96.6470588,27.5945946 96.6470588,27.9459459 96.2941176,28.6486486 C95.9411765,31.1081081 94.8823529,33.2162162 93.8235294,34.2702703 C92.7647059,35.6756757 91,36.027027 89.2352941,36.027027 C87.8235294,36.027027 86.7647059,35.6756757 86.0588235,34.972973 C85.3529412,34.2702703 85,32.8648649 85,31.4594595 C85,31.1081081 85,30.7567568 85,30.4054054 C85,30.0540541 85,29.7027027 85.3529412,29.3513514 C85.3529412,28.6486486 85.7058824,28.2972973 85.7058824,27.9459459 C83.9411765,30.7567568 81.4705882,33.5675676 79,36.027027 C79.3529412,37.4324324 80.0588235,38.4864865 81.1176471,39.5405405 C82.8823529,41.2972973 85.3529412,42 88.1764706,42 C91.7058824,42 94.8823529,40.9459459 97.7058824,38.4864865 C100.176471,36.3783784 101.941176,33.2162162 102.647059,29.3513514 C102.647059,28.6486486 103,28.2972973 103,27.5945946 C103,26.8918919 103,26.5405405 103,25.8378378 C103,22.3243243 102.294118,20.2162162 100.529412,18.4594595 Z" id="Path" fill="#A5002F"></path>
                </g>
            </g>
        </g>
    </g>
</svg>